<?xml version="1.0" standalone="no"?>
<!DOCTYPE svg PUBLIC "-//W3C//DTD SVG 20010904//EN"
 "http://www.w3.org/TR/2001/REC-SVG-20010904/DTD/svg10.dtd">
<svg version="1.0" xmlns="http://www.w3.org/2000/svg"
 width="220.000000pt" height="220.000000pt" viewBox="0 0 220.000000 220.000000"
 preserveAspectRatio="xMidYMid meet">
<metadata>
Created by potrace 1.12, written by Peter Selinger 2001-2015
</metadata>
<g transform="translate(0.000000,220.000000) scale(0.100000,-0.100000)"
fill="#ffffff" stroke="none">
<path d="M1066 2124 c-3 -9 -6 -44 -6 -79 l0 -63 -62 -7 c-200 -23 -417 -132
-554 -277 -119 -126 -208 -300 -238 -465 l-5 -33 83 0 83 0 18 65 c64 238 244
431 475 510 41 14 103 29 138 32 l62 6 0 -100 0 -101 -71 -16 c-184 -41 -349
-193 -398 -364 l-10 -32 42 1 c42 0 42 0 75 69 54 113 148 195 265 232 100 31
97 34 97 -87 0 -88 -3 -105 -15 -105 -55 0 -156 -92 -177 -162 l-11 -38 -405
-2 c-373 -3 -406 -4 -416 -21 -8 -12 -8 -22 0 -35 9 -13 27 -18 82 -20 l71 -3
6 -37 c18 -112 30 -164 55 -233 115 -315 413 -551 742 -587 l63 -7 5 -74 c5
-81 23 -107 58 -85 13 9 18 28 20 88 l3 76 43 0 c69 0 228 45 320 91 266 131
464 411 494 694 l7 70 72 3 c79 3 99 16 89 57 l-6 25 -406 0 c-405 0 -406 0
-411 21 -20 76 -87 149 -159 174 l-39 13 -3 105 -3 105 48 -9 c149 -28 307
-164 338 -291 6 -25 11 -28 51 -28 43 0 44 1 38 28 -13 54 -77 163 -127 213
-86 87 -188 142 -292 157 l-50 7 -3 104 -3 104 63 -6 c275 -27 536 -256 613
-540 l18 -67 84 0 83 0 -6 27 c-46 204 -111 333 -232 464 -139 150 -357 261
-559 284 l-63 7 0 63 c0 81 -6 95 -40 95 -16 0 -30 -7 -34 -16z m-489 -1164
c31 -154 136 -291 277 -360 44 -22 109 -46 144 -52 l62 -12 0 -104 0 -104 -52
7 c-93 13 -158 34 -252 82 -72 38 -108 65 -176 133 -47 47 -100 111 -119 143
-42 72 -88 204 -97 280 l-7 58 103 -3 103 -3 14 -65z m288 41 c14 -65 100
-149 169 -167 26 -6 26 -7 26 -110 0 -117 4 -113 -81 -88 -161 47 -298 195
-324 352 l-7 42 105 0 105 0 7 -29z m685 6 c0 -31 -33 -127 -56 -164 -75 -118
-189 -197 -311 -218 l-43 -7 0 105 0 104 40 12 c21 6 54 24 71 39 38 32 89
108 89 134 0 16 10 18 105 18 103 0 105 0 105 -23z m286 -32 c-35 -302 -282
-566 -588 -629 -117 -24 -108 -31 -108 87 l0 103 64 11 c202 35 384 216 419
417 l11 66 104 0 105 0 -7 -55z"/>
</g>
</svg>
