<?xml version="1.0" encoding="utf-8"?>
<!-- Generator: Adobe Illustrator 17.0.0, SVG Export Plug-In . SVG Version: 6.00 Build 0)  -->
<!DOCTYPE svg PUBLIC "-//W3C//DTD SVG 1.1//EN" "http://www.w3.org/Graphics/SVG/1.1/DTD/svg11.dtd" [
	<!ENTITY ns_flows "http://ns.adobe.com/Flows/1.0/">
	<!ENTITY ns_extend "http://ns.adobe.com/Extensibility/1.0/">
	<!ENTITY ns_ai "http://ns.adobe.com/AdobeIllustrator/10.0/">
	<!ENTITY ns_graphs "http://ns.adobe.com/Graphs/1.0/">
]>
<svg version="1.1" id="Layer_1" xmlns:x="&ns_extend;" xmlns:i="&ns_ai;" xmlns:graph="&ns_graphs;"
	 xmlns="http://www.w3.org/2000/svg" xmlns:xlink="http://www.w3.org/1999/xlink" xmlns:a="http://ns.adobe.com/AdobeSVGViewerExtensions/3.0/"
	 x="0px" y="0px" width="650px" height="650px" viewBox="0 0 650 650" enable-background="new 0 0 650 650" xml:space="preserve">
<g id="Layer_2">
</g>
<g id="Layer_3">
	<g>
		<circle fill="none" stroke="#000000" stroke-width="10" stroke-miterlimit="10" cx="325" cy="325" r="305.75"/>
		<line fill="none" stroke="#000000" stroke-width="5" stroke-miterlimit="10" x1="325" y1="19.25" x2="325" y2="189.667"/>
		<line fill="none" stroke="#000000" stroke-width="0.7087" stroke-miterlimit="10" x1="325" y1="189.667" x2="325" y2="460.334"/>
		<circle cx="325" cy="296" r="3"/>
		<circle cx="325" cy="271" r="3"/>
		<circle cx="325" cy="246" r="3"/>
		<circle cx="325" cy="221" r="3"/>
		<line fill="none" stroke="#000000" stroke-width="5" stroke-miterlimit="10" x1="325" y1="630.75" x2="325" y2="460.334"/>
		<circle cx="325" cy="354" r="3"/>
		<circle cx="325" cy="379" r="3"/>
		<circle cx="325" cy="404" r="3"/>
		<circle cx="325" cy="429" r="3"/>
		<line fill="none" stroke="#000000" stroke-width="5" stroke-miterlimit="10" x1="19.25" y1="325" x2="189.667" y2="325"/>
		<line fill="none" stroke="#000000" stroke-width="0.7087" stroke-miterlimit="10" x1="189.667" y1="325" x2="460.334" y2="325"/>
		<circle cx="296" cy="325" r="3"/>
		<circle cx="271" cy="325" r="3"/>
		<circle cx="246" cy="325" r="3"/>
		<circle cx="221" cy="325" r="3"/>
		<line fill="none" stroke="#000000" stroke-width="5" stroke-miterlimit="10" x1="630.75" y1="325" x2="460.334" y2="325"/>
		<circle cx="354" cy="325" r="3"/>
		<circle cx="379" cy="325" r="3"/>
		<circle cx="404" cy="325" r="3"/>
		<circle cx="429" cy="325" r="3"/>
	</g>
</g>
</svg>
